<svg width="185" height="19" viewBox="0 0 185 19" fill="none" xmlns="http://www.w3.org/2000/svg">
<path d="M0.960938 18.0234H5.97656V17.4141C5.08594 17.4141 4.47656 17.2891 4.14844 17.0391C3.83594 16.7891 3.67969 16.3672 3.67969 15.7734V1.89844H3.96094L10.1016 18.1875H10.4766L16.7109 1.54688H16.9688V15.7734C16.9688 16.3359 16.8047 16.7422 16.4766 16.9922C16.1172 17.2734 15.5156 17.4141 14.6719 17.4141V18.0234H20.5078V17.4141C19.7578 17.4141 19.2188 17.2734 18.8906 16.9922C18.6094 16.7266 18.4688 16.3203 18.4688 15.7734V2.64844C18.4688 2.16406 18.5938 1.82031 18.8438 1.61719C19.1406 1.41406 19.6953 1.3125 20.5078 1.3125V0.726562H16.2891L10.6875 15.7969L5.03906 0.726562H0.960938V1.3125C1.69531 1.3125 2.21875 1.41406 2.53125 1.61719C2.84375 1.82031 3 2.16406 3 2.64844V15.7734C3 16.3672 2.85156 16.7891 2.55469 17.0391C2.24219 17.2891 1.71094 17.4141 0.960938 17.4141V18.0234Z" fill="#262626"/>
<path d="M23.3194 18.0234H29.4366V17.4141C28.5928 17.4141 27.9991 17.2734 27.6553 16.9922C27.3116 16.7266 27.1397 16.2969 27.1397 15.7031V9.42188H30.4678L35.2022 18.0234H38.46V17.4141C37.7881 17.4141 37.2803 17.3359 36.9366 17.1797C36.5459 17.0234 36.2334 16.7266 35.9991 16.2891L32.1084 9.375C33.6397 9.28125 34.8194 8.8125 35.6475 7.96875C36.4131 7.1875 36.7959 6.19531 36.7959 4.99219C36.7959 3.72656 36.3116 2.71094 35.3428 1.94531C34.3272 1.14844 32.9209 0.75 31.1241 0.75H23.3194V1.35938C24.21 1.35938 24.8194 1.46094 25.1475 1.66406C25.4756 1.86719 25.6397 2.24219 25.6397 2.78906V15.7031C25.6397 16.3125 25.4756 16.7422 25.1475 16.9922C24.8037 17.2734 24.1944 17.4141 23.3194 17.4141V18.0234ZM27.1397 8.8125V2.78906C27.1397 2.27344 27.2881 1.89844 27.585 1.66406C27.8506 1.46094 28.2881 1.35938 28.8975 1.35938H31.0303C32.3116 1.35938 33.3116 1.67969 34.0303 2.32031C34.7647 2.96094 35.1319 3.85156 35.1319 4.99219C35.1319 6.07031 34.8662 6.94531 34.335 7.61719C33.71 8.41406 32.7881 8.8125 31.5694 8.8125H27.1397Z" fill="#262626"/>
<path d="M42.9825 15.6094C42.5606 15.6094 42.2247 15.7422 41.9747 16.0078C41.7716 16.2578 41.67 16.5781 41.67 16.9688C41.67 17.3594 41.7716 17.6797 41.9747 17.9297C42.2247 18.2266 42.5606 18.375 42.9825 18.375C43.42 18.375 43.7559 18.2266 43.9903 17.9297C44.2091 17.6797 44.3184 17.3594 44.3184 16.9688C44.3184 16.5781 44.2091 16.2578 43.9903 16.0078C43.7559 15.7422 43.42 15.6094 42.9825 15.6094Z" fill="#262626"/>
<path d="M72.1603 13.3594L71.7384 13.1484C70.9884 14.5547 70.1369 15.5859 69.1837 16.2422C68.2462 16.8828 67.1603 17.2031 65.9259 17.2031C64.0041 17.2031 62.4416 16.4453 61.2384 14.9297C60.0353 13.4453 59.4338 11.5625 59.4338 9.28125C59.4338 6.85938 59.9416 4.86719 60.9572 3.30469C61.9884 1.72656 63.3478 0.9375 65.0353 0.9375C66.4259 0.9375 67.7306 1.41406 68.9494 2.36719C69.7775 3.02344 70.5744 3.90625 71.34 5.01562L71.7384 4.82812L70.0744 0.445312L68.3634 1.00781L68.1291 0.914062C67.5197 0.695312 67.0509 0.554688 66.7228 0.492188C66.2072 0.382812 65.6212 0.328125 64.965 0.328125C62.8244 0.328125 61.0744 1.21094 59.715 2.97656C58.4338 4.66406 57.7931 6.76562 57.7931 9.28125C57.7931 12.1094 58.5353 14.3672 60.0197 16.0547C61.4103 17.6328 63.1994 18.4219 65.3869 18.4219C67.09 18.4219 68.5431 17.9141 69.7462 16.8984C70.7306 16.0547 71.5353 14.875 72.1603 13.3594Z" fill="#262626"/>
<path d="M83.175 0.328125C80.8156 0.328125 78.9484 1.26562 77.5734 3.14062C76.3391 4.84375 75.7219 6.92188 75.7219 9.375C75.7219 11.8125 76.3391 13.875 77.5734 15.5625C78.9484 17.4531 80.8156 18.3984 83.175 18.3984C85.6125 18.3984 87.5344 17.4531 88.9406 15.5625C90.2063 13.8906 90.8391 11.8281 90.8391 9.375C90.8391 6.90625 90.2063 4.82812 88.9406 3.14062C87.5344 1.26562 85.6125 0.328125 83.175 0.328125ZM83.175 0.9375C85.0969 0.9375 86.6125 1.82031 87.7219 3.58594C88.7063 5.14844 89.1984 7.08594 89.1984 9.39844C89.1984 11.6797 88.7063 13.6016 87.7219 15.1641C86.6125 16.9141 85.0969 17.7891 83.175 17.7891C81.3313 17.7891 79.8703 16.9141 78.7922 15.1641C77.8234 13.5859 77.3391 11.6641 77.3391 9.39844C77.3391 7.10156 77.8234 5.16406 78.7922 3.58594C79.8703 1.82031 81.3313 0.9375 83.175 0.9375Z" fill="#262626"/>
<path d="M93.9084 0.75V1.35938C94.8147 1.35938 95.4319 1.46875 95.76 1.6875C96.0725 1.89062 96.2288 2.25781 96.2288 2.78906V12.3984C96.2288 14.3672 96.8381 15.8906 98.0569 16.9688C99.1506 17.9375 100.565 18.4219 102.299 18.4219C104.283 18.4219 105.838 17.9453 106.963 16.9922C108.166 15.9922 108.768 14.5625 108.768 12.7031V2.78906C108.768 2.25781 108.932 1.89062 109.26 1.6875C109.604 1.46875 110.213 1.35938 111.088 1.35938V0.75H105.815V1.35938C106.674 1.35938 107.276 1.46875 107.619 1.6875C107.948 1.89062 108.112 2.25781 108.112 2.78906V12.5625C108.112 14.3594 107.549 15.6953 106.424 16.5703C105.549 17.2734 104.424 17.625 103.049 17.625C101.487 17.625 100.205 17.1562 99.2053 16.2188C98.2209 15.2969 97.7288 14.1094 97.7288 12.6562V2.78906C97.7288 2.27344 97.8928 1.90625 98.2209 1.6875C98.5803 1.46875 99.1819 1.35938 100.026 1.35938V0.75H93.9084Z" fill="#262626"/>
<path d="M113.478 18.0234H118.423V17.4141C117.626 17.4141 117.072 17.2891 116.759 17.0391C116.462 16.8047 116.314 16.3828 116.314 15.7734V2.8125L127.798 18.0938H128.197V2.64844C128.197 2.19531 128.368 1.85938 128.712 1.64062C129.072 1.42188 129.611 1.3125 130.329 1.3125V0.726562H125.361V1.3125C126.095 1.3125 126.634 1.41406 126.978 1.61719C127.322 1.83594 127.493 2.17969 127.493 2.64844V15.1875L116.548 0.726562H113.478V1.3125C114.228 1.3125 114.767 1.4375 115.095 1.6875C115.423 1.9375 115.587 2.36719 115.587 2.97656V15.7734C115.587 16.3672 115.423 16.7891 115.095 17.0391C114.783 17.2891 114.243 17.4141 113.478 17.4141V18.0234Z" fill="#262626"/>
<path d="M137.711 18.0703H144.625V17.4609C143.625 17.4609 142.946 17.3906 142.586 17.25C142.133 17.0625 141.907 16.6953 141.907 16.1484V2.69531C141.907 2.19531 142.102 1.84375 142.492 1.64062C142.867 1.4375 143.485 1.33594 144.344 1.33594C145.578 1.33594 146.578 1.65625 147.344 2.29688C147.828 2.70312 148.399 3.46875 149.055 4.59375L149.313 4.99219L149.711 4.85156L148.305 0.726562H134.078L132.672 4.6875L133.024 4.85156C133.711 3.72656 134.352 2.92969 134.946 2.46094C135.867 1.71094 137.024 1.33594 138.414 1.33594C139.164 1.33594 139.688 1.4375 139.985 1.64062C140.282 1.82812 140.43 2.17969 140.43 2.69531V16.1484C140.43 16.6797 140.157 17.0469 139.61 17.25C139.235 17.3906 138.602 17.4609 137.711 17.4609V18.0703Z" fill="#262626"/>
<path d="M152.007 17.9766H165.015L166.632 13.7812L166.21 13.5469C165.226 14.9219 164.265 15.8984 163.327 16.4766C162.343 17.0703 161.163 17.3672 159.788 17.3672H157.562C156.906 17.3672 156.421 17.2344 156.109 16.9688C155.796 16.7031 155.64 16.2891 155.64 15.7266V9.32812H159.273C160.117 9.32812 160.757 9.57031 161.195 10.0547C161.648 10.5547 161.874 11.3281 161.874 12.375H162.437V5.64844H161.874C161.874 6.74219 161.648 7.52344 161.195 7.99219C160.788 8.42969 160.148 8.64844 159.273 8.64844H155.64V2.85938C155.64 2.3125 155.796 1.91406 156.109 1.66406C156.406 1.42969 156.874 1.3125 157.515 1.3125H159.882C161.242 1.3125 162.382 1.63281 163.304 2.27344C163.835 2.64844 164.452 3.3125 165.156 4.26562L165.765 5.0625L166.117 4.82812L164.429 0.726562H152.007V1.3125C152.742 1.3125 153.273 1.42969 153.601 1.66406C153.945 1.91406 154.117 2.3125 154.117 2.85938V15.7266C154.117 16.3047 153.945 16.7188 153.601 16.9688C153.273 17.2344 152.742 17.3672 152.007 17.3672V17.9766Z" fill="#262626"/>
<path d="M169.092 18.0234H175.209V17.4141C174.366 17.4141 173.772 17.2734 173.428 16.9922C173.084 16.7266 172.913 16.2969 172.913 15.7031V9.42188H176.241L180.975 18.0234H184.233V17.4141C183.561 17.4141 183.053 17.3359 182.709 17.1797C182.319 17.0234 182.006 16.7266 181.772 16.2891L177.881 9.375C179.413 9.28125 180.592 8.8125 181.42 7.96875C182.186 7.1875 182.569 6.19531 182.569 4.99219C182.569 3.72656 182.084 2.71094 181.116 1.94531C180.1 1.14844 178.694 0.75 176.897 0.75H169.092V1.35938C169.983 1.35938 170.592 1.46094 170.92 1.66406C171.248 1.86719 171.413 2.24219 171.413 2.78906V15.7031C171.413 16.3125 171.248 16.7422 170.92 16.9922C170.577 17.2734 169.967 17.4141 169.092 17.4141V18.0234ZM172.913 8.8125V2.78906C172.913 2.27344 173.061 1.89844 173.358 1.66406C173.623 1.46094 174.061 1.35938 174.67 1.35938H176.803C178.084 1.35938 179.084 1.67969 179.803 2.32031C180.538 2.96094 180.905 3.85156 180.905 4.99219C180.905 6.07031 180.639 6.94531 180.108 7.61719C179.483 8.41406 178.561 8.8125 177.342 8.8125H172.913Z" fill="#262626"/>
<path d="M0.960938 18.0234H5.97656V17.4141C5.08594 17.4141 4.47656 17.2891 4.14844 17.0391C3.83594 16.7891 3.67969 16.3672 3.67969 15.7734V1.89844H3.96094L10.1016 18.1875H10.4766L16.7109 1.54688H16.9688V15.7734C16.9688 16.3359 16.8047 16.7422 16.4766 16.9922C16.1172 17.2734 15.5156 17.4141 14.6719 17.4141V18.0234H20.5078V17.4141C19.7578 17.4141 19.2188 17.2734 18.8906 16.9922C18.6094 16.7266 18.4688 16.3203 18.4688 15.7734V2.64844C18.4688 2.16406 18.5938 1.82031 18.8438 1.61719C19.1406 1.41406 19.6953 1.3125 20.5078 1.3125V0.726562H16.2891L10.6875 15.7969L5.03906 0.726562H0.960938V1.3125C1.69531 1.3125 2.21875 1.41406 2.53125 1.61719C2.84375 1.82031 3 2.16406 3 2.64844V15.7734C3 16.3672 2.85156 16.7891 2.55469 17.0391C2.24219 17.2891 1.71094 17.4141 0.960938 17.4141V18.0234Z" fill="#262626"/>
<path d="M23.3194 18.0234H29.4366V17.4141C28.5928 17.4141 27.9991 17.2734 27.6553 16.9922C27.3116 16.7266 27.1397 16.2969 27.1397 15.7031V9.42188H30.4678L35.2022 18.0234H38.46V17.4141C37.7881 17.4141 37.2803 17.3359 36.9366 17.1797C36.5459 17.0234 36.2334 16.7266 35.9991 16.2891L32.1084 9.375C33.6397 9.28125 34.8194 8.8125 35.6475 7.96875C36.4131 7.1875 36.7959 6.19531 36.7959 4.99219C36.7959 3.72656 36.3116 2.71094 35.3428 1.94531C34.3272 1.14844 32.9209 0.75 31.1241 0.75H23.3194V1.35938C24.21 1.35938 24.8194 1.46094 25.1475 1.66406C25.4756 1.86719 25.6397 2.24219 25.6397 2.78906V15.7031C25.6397 16.3125 25.4756 16.7422 25.1475 16.9922C24.8037 17.2734 24.1944 17.4141 23.3194 17.4141V18.0234ZM27.1397 8.8125V2.78906C27.1397 2.27344 27.2881 1.89844 27.585 1.66406C27.8506 1.46094 28.2881 1.35938 28.8975 1.35938H31.0303C32.3116 1.35938 33.3116 1.67969 34.0303 2.32031C34.7647 2.96094 35.1319 3.85156 35.1319 4.99219C35.1319 6.07031 34.8662 6.94531 34.335 7.61719C33.71 8.41406 32.7881 8.8125 31.5694 8.8125H27.1397Z" fill="#262626"/>
<path d="M42.9825 15.6094C42.5606 15.6094 42.2247 15.7422 41.9747 16.0078C41.7716 16.2578 41.67 16.5781 41.67 16.9688C41.67 17.3594 41.7716 17.6797 41.9747 17.9297C42.2247 18.2266 42.5606 18.375 42.9825 18.375C43.42 18.375 43.7559 18.2266 43.9903 17.9297C44.2091 17.6797 44.3184 17.3594 44.3184 16.9688C44.3184 16.5781 44.2091 16.2578 43.9903 16.0078C43.7559 15.7422 43.42 15.6094 42.9825 15.6094Z" fill="#262626"/>
<path d="M72.1603 13.3594L71.7384 13.1484C70.9884 14.5547 70.1369 15.5859 69.1837 16.2422C68.2462 16.8828 67.1603 17.2031 65.9259 17.2031C64.0041 17.2031 62.4416 16.4453 61.2384 14.9297C60.0353 13.4453 59.4338 11.5625 59.4338 9.28125C59.4338 6.85938 59.9416 4.86719 60.9572 3.30469C61.9884 1.72656 63.3478 0.9375 65.0353 0.9375C66.4259 0.9375 67.7306 1.41406 68.9494 2.36719C69.7775 3.02344 70.5744 3.90625 71.34 5.01562L71.7384 4.82812L70.0744 0.445312L68.3634 1.00781L68.1291 0.914062C67.5197 0.695312 67.0509 0.554688 66.7228 0.492188C66.2072 0.382812 65.6212 0.328125 64.965 0.328125C62.8244 0.328125 61.0744 1.21094 59.715 2.97656C58.4338 4.66406 57.7931 6.76562 57.7931 9.28125C57.7931 12.1094 58.5353 14.3672 60.0197 16.0547C61.4103 17.6328 63.1994 18.4219 65.3869 18.4219C67.09 18.4219 68.5431 17.9141 69.7462 16.8984C70.7306 16.0547 71.5353 14.875 72.1603 13.3594Z" fill="#262626"/>
<path d="M83.175 0.328125C80.8156 0.328125 78.9484 1.26562 77.5734 3.14062C76.3391 4.84375 75.7219 6.92188 75.7219 9.375C75.7219 11.8125 76.3391 13.875 77.5734 15.5625C78.9484 17.4531 80.8156 18.3984 83.175 18.3984C85.6125 18.3984 87.5344 17.4531 88.9406 15.5625C90.2063 13.8906 90.8391 11.8281 90.8391 9.375C90.8391 6.90625 90.2063 4.82812 88.9406 3.14062C87.5344 1.26562 85.6125 0.328125 83.175 0.328125ZM83.175 0.9375C85.0969 0.9375 86.6125 1.82031 87.7219 3.58594C88.7063 5.14844 89.1984 7.08594 89.1984 9.39844C89.1984 11.6797 88.7063 13.6016 87.7219 15.1641C86.6125 16.9141 85.0969 17.7891 83.175 17.7891C81.3313 17.7891 79.8703 16.9141 78.7922 15.1641C77.8234 13.5859 77.3391 11.6641 77.3391 9.39844C77.3391 7.10156 77.8234 5.16406 78.7922 3.58594C79.8703 1.82031 81.3313 0.9375 83.175 0.9375Z" fill="#262626"/>
<path d="M93.9084 0.75V1.35938C94.8147 1.35938 95.4319 1.46875 95.76 1.6875C96.0725 1.89062 96.2288 2.25781 96.2288 2.78906V12.3984C96.2288 14.3672 96.8381 15.8906 98.0569 16.9688C99.1506 17.9375 100.565 18.4219 102.299 18.4219C104.283 18.4219 105.838 17.9453 106.963 16.9922C108.166 15.9922 108.768 14.5625 108.768 12.7031V2.78906C108.768 2.25781 108.932 1.89062 109.26 1.6875C109.604 1.46875 110.213 1.35938 111.088 1.35938V0.75H105.815V1.35938C106.674 1.35938 107.276 1.46875 107.619 1.6875C107.948 1.89062 108.112 2.25781 108.112 2.78906V12.5625C108.112 14.3594 107.549 15.6953 106.424 16.5703C105.549 17.2734 104.424 17.625 103.049 17.625C101.487 17.625 100.205 17.1562 99.2053 16.2188C98.2209 15.2969 97.7288 14.1094 97.7288 12.6562V2.78906C97.7288 2.27344 97.8928 1.90625 98.2209 1.6875C98.5803 1.46875 99.1819 1.35938 100.026 1.35938V0.75H93.9084Z" fill="#262626"/>
<path d="M113.478 18.0234H118.423V17.4141C117.626 17.4141 117.072 17.2891 116.759 17.0391C116.462 16.8047 116.314 16.3828 116.314 15.7734V2.8125L127.798 18.0938H128.197V2.64844C128.197 2.19531 128.368 1.85938 128.712 1.64062C129.072 1.42188 129.611 1.3125 130.329 1.3125V0.726562H125.361V1.3125C126.095 1.3125 126.634 1.41406 126.978 1.61719C127.322 1.83594 127.493 2.17969 127.493 2.64844V15.1875L116.548 0.726562H113.478V1.3125C114.228 1.3125 114.767 1.4375 115.095 1.6875C115.423 1.9375 115.587 2.36719 115.587 2.97656V15.7734C115.587 16.3672 115.423 16.7891 115.095 17.0391C114.783 17.2891 114.243 17.4141 113.478 17.4141V18.0234Z" fill="#262626"/>
<path d="M137.711 18.0703H144.625V17.4609C143.625 17.4609 142.946 17.3906 142.586 17.25C142.133 17.0625 141.907 16.6953 141.907 16.1484V2.69531C141.907 2.19531 142.102 1.84375 142.492 1.64062C142.867 1.4375 143.485 1.33594 144.344 1.33594C145.578 1.33594 146.578 1.65625 147.344 2.29688C147.828 2.70312 148.399 3.46875 149.055 4.59375L149.313 4.99219L149.711 4.85156L148.305 0.726562H134.078L132.672 4.6875L133.024 4.85156C133.711 3.72656 134.352 2.92969 134.946 2.46094C135.867 1.71094 137.024 1.33594 138.414 1.33594C139.164 1.33594 139.688 1.4375 139.985 1.64062C140.282 1.82812 140.43 2.17969 140.43 2.69531V16.1484C140.43 16.6797 140.157 17.0469 139.61 17.25C139.235 17.3906 138.602 17.4609 137.711 17.4609V18.0703Z" fill="#262626"/>
<path d="M152.007 17.9766H165.015L166.632 13.7812L166.21 13.5469C165.226 14.9219 164.265 15.8984 163.327 16.4766C162.343 17.0703 161.163 17.3672 159.788 17.3672H157.562C156.906 17.3672 156.421 17.2344 156.109 16.9688C155.796 16.7031 155.64 16.2891 155.64 15.7266V9.32812H159.273C160.117 9.32812 160.757 9.57031 161.195 10.0547C161.648 10.5547 161.874 11.3281 161.874 12.375H162.437V5.64844H161.874C161.874 6.74219 161.648 7.52344 161.195 7.99219C160.788 8.42969 160.148 8.64844 159.273 8.64844H155.64V2.85938C155.64 2.3125 155.796 1.91406 156.109 1.66406C156.406 1.42969 156.874 1.3125 157.515 1.3125H159.882C161.242 1.3125 162.382 1.63281 163.304 2.27344C163.835 2.64844 164.452 3.3125 165.156 4.26562L165.765 5.0625L166.117 4.82812L164.429 0.726562H152.007V1.3125C152.742 1.3125 153.273 1.42969 153.601 1.66406C153.945 1.91406 154.117 2.3125 154.117 2.85938V15.7266C154.117 16.3047 153.945 16.7188 153.601 16.9688C153.273 17.2344 152.742 17.3672 152.007 17.3672V17.9766Z" fill="#262626"/>
<path d="M169.092 18.0234H175.209V17.4141C174.366 17.4141 173.772 17.2734 173.428 16.9922C173.084 16.7266 172.913 16.2969 172.913 15.7031V9.42188H176.241L180.975 18.0234H184.233V17.4141C183.561 17.4141 183.053 17.3359 182.709 17.1797C182.319 17.0234 182.006 16.7266 181.772 16.2891L177.881 9.375C179.413 9.28125 180.592 8.8125 181.42 7.96875C182.186 7.1875 182.569 6.19531 182.569 4.99219C182.569 3.72656 182.084 2.71094 181.116 1.94531C180.1 1.14844 178.694 0.75 176.897 0.75H169.092V1.35938C169.983 1.35938 170.592 1.46094 170.92 1.66406C171.248 1.86719 171.413 2.24219 171.413 2.78906V15.7031C171.413 16.3125 171.248 16.7422 170.92 16.9922C170.577 17.2734 169.967 17.4141 169.092 17.4141V18.0234ZM172.913 8.8125V2.78906C172.913 2.27344 173.061 1.89844 173.358 1.66406C173.623 1.46094 174.061 1.35938 174.67 1.35938H176.803C178.084 1.35938 179.084 1.67969 179.803 2.32031C180.538 2.96094 180.905 3.85156 180.905 4.99219C180.905 6.07031 180.639 6.94531 180.108 7.61719C179.483 8.41406 178.561 8.8125 177.342 8.8125H172.913Z" fill="#262626"/>
</svg>
